Coordinates
version=1
nRows=26
nColumns=33
inDegrees=yes

Units are S.I. units (second, meters, Newtons, ...)
Angles are in degrees.

endheader
time	ground_thorax_rot_x	ground_thorax_rot_y	ground_thorax_rot_z	ground_thorax_tx	ground_thorax_ty	ground_thorax_tz	clav_prot_r	clav_elev_r	scapula_abduction_r	scapula_elevation_r	scapula_upward_rot_r	scapula_winging_r	shoulder_elv_r	plane_of_elev_r	axial_rot_r	elbow_flexion_r	pro_sup_r	wrist_flex_r	wrist_dev_r	clav_prot_l	clav_elev_l	scapula_abduction_l	scapula_elevation_l	scapula_upward_rot_l	scapula_winging_l	shoulder_elv_l	plane_of_elev_l	axial_rot_l	elbow_flexion_l	pro_sup_l	wrist_flex_l	wrist_dev_l	
8.5400	38.415620	12.164364	13.420056	-116.623077	783.015062	5.990396	12.407832	40.724233	44.943040	40.241251	-13.231763	-2612.826148	-3180.576101	29.812158	56.687817	1451.072365	27.917360	18.646022	9.722716	4.987639	-45.000000	-41.513970	45.000000	-30.279123	449.565799	-98.653873	137.573037	159.386446	-351.009873	23.583892	7.353329	-19.414954	
8.5500	38.582936	12.407319	13.702452	-118.841894	784.135363	5.801134	12.663627	41.021417	44.898849	40.656178	-14.083127	-2612.669467	-3180.436470	29.957376	56.196615	1451.157876	27.874939	18.673878	9.635228	4.995794	-45.000000	-41.022116	45.000000	-31.152041	449.561251	-98.454336	137.550196	159.492308	-350.904811	23.406571	7.290338	-19.452669	
8.5600	38.745741	12.664517	13.994499	-121.109865	785.296195	5.623136	12.918388	41.290157	44.816352	41.082452	-14.964615	-2612.476746	-3180.281202	30.112784	55.667228	1451.239666	27.794673	18.701049	9.553239	5.001876	-45.000000	-40.535357	45.000000	-32.042569	449.566890	-98.242785	137.524230	159.585765	-350.798098	23.220775	7.228707	-19.493575	
8.5700	38.896086	12.934390	14.291998	-123.427012	786.497314	5.455351	13.160913	41.544063	44.677894	41.507409	-15.868466	-2612.244390	-3180.102288	30.287826	55.102582	1451.321318	27.667614	18.725584	9.472104	5.013864	-45.000000	-40.069179	45.000000	-32.927507	449.589928	-98.022329	137.497690	159.664659	-350.694725	23.022072	7.171622	-19.536084	
8.5800	39.037221	13.315696	14.720369	-125.792032	787.737899	5.296649	13.458904	41.774054	44.412052	42.008312	-17.005623	-2611.863768	-3179.878883	30.509783	54.387806	1451.397204	27.455177	18.747873	9.396038	5.057835	-45.000000	-39.539591	45.000000	-34.037778	449.603423	-97.768098	137.459168	159.719238	-350.594061	22.786667	7.115570	-19.578217	
8.5900	39.170129	13.744334	15.202073	-128.201120	789.016520	5.146304	13.762556	41.979746	44.050397	42.543812	-18.244354	-2611.387431	-3179.624591	30.761321	53.566665	1451.469675	27.170565	18.768173	9.325561	5.114361	-45.000000	-39.003263	45.000000	-35.222036	449.624049	-97.507574	137.418228	159.764783	-350.498579	22.516314	7.066610	-19.620588	
8.6000	39.296468	14.239856	15.752735	-130.646238	790.330350	5.004897	14.086756	42.140829	43.593545	43.129541	-19.608995	-2610.809824	-3179.339967	31.040708	52.639093	1451.528522	26.808091	18.787425	9.262962	5.187744	-45.000000	-38.438286	45.000000	-36.537538	449.645179	-97.222605	137.358212	159.775486	-350.406243	22.203494	7.019259	-19.663012	
8.6100	39.419880	14.639603	16.167741	-133.116046	791.675786	4.873939	14.324025	42.287045	43.150647	43.655891	-20.745554	-2610.296271	-3179.070311	31.295636	51.785062	1451.582018	26.425967	18.805280	9.199507	5.247386	-45.000000	-37.991726	45.000000	-37.593753	449.709089	-96.970908	137.311069	159.762658	-350.315056	21.873767	6.983448	-19.708224	
8.6200	39.544025	14.980675	16.498811	-135.597081	793.048417	4.755568	14.516642	42.449193	42.738798	44.144719	-21.740388	-2609.844623	-3178.818423	31.531482	51.011677	1451.628690	26.038233	18.820489	9.129826	5.322673	-45.000000	-37.626075	45.000000	-38.482161	449.798537	-96.741539	137.279464	159.728223	-350.226359	21.522107	6.954030	-19.751846	
8.6300	39.667957	15.124579	16.575291	-138.076933	794.444341	4.651159	14.575281	42.602164	42.459412	44.489989	-22.291680	-2609.597317	-3178.615627	31.697836	50.461462	1451.673154	25.710971	18.838459	9.057469	5.364190	-45.000000	-37.451213	45.000000	-38.897541	449.945711	-96.568802	137.278231	159.694079	-350.139617	21.170589	6.935946	-19.797446	
8.6400	39.788508	15.160228	16.522410	-140.547247	795.860574	4.560561	14.563411	42.708754	42.293134	44.735179	-22.585160	-2609.504501	-3178.444602	31.817088	50.067161	1451.706869	25.440976	18.861548	8.990711	5.391397	-45.000000	-37.365810	45.000000	-39.058491	450.132058	-96.429470	137.292428	159.669824	-350.060767	20.802494	6.909878	-19.838595	
8.6500	39.896729	15.074698	16.324696	-143.006512	797.296047	4.481097	14.479047	42.772193	42.231064	44.854881	-22.606541	-2609.560476	-3178.289923	31.888227	49.813215	1451.735559	25.241380	18.891959	8.928153	5.397095	-45.000000	-37.385689	45.000000	-38.954631	450.355016	-96.305588	137.318113	159.657504	-349.989577	20.413837	6.887085	-19.877362	
8.6600	39.988611	15.001667	16.157130	-145.458870	798.750946	4.408613	14.406236	42.782059	42.185434	44.934210	-22.647820	-2609.636283	-3178.113671	31.956185	49.555251	1451.756467	25.070484	18.928797	8.873066	5.409101	-45.000000	-37.387949	45.000000	-38.892944	450.583620	-96.162142	137.337036	159.654919	-349.928426	19.971303	6.860732	-19.908983	
8.6700	40.055504	14.942884	16.018469	-147.911231	800.225823	4.338783	14.349695	42.753745	42.138486	44.967625	-22.739197	-2609.711495	-3177.899958	32.027404	49.267450	1451.778027	24.913802	18.967905	8.813131	5.449105	-45.000000	-37.389925	45.000000	-38.886140	450.825761	-95.982902	137.337109	159.636666	-349.872217	19.452286	6.850884	-19.934716	
8.6800	40.106352	14.914655	15.933350	-150.370285	801.720730	4.268720	14.312338	42.688519	42.076624	44.989557	-22.914166	-2609.765699	-3177.656873	32.109260	48.936930	1451.799781	24.749098	19.008799	8.755783	5.505299	-45.000000	-37.364893	45.000000	-38.955987	451.073844	-95.787297	137.328799	159.611047	-349.823022	18.841961	6.851450	-19.952360	
8.6900	40.143552	14.893157	15.861852	-152.839626	803.233856	4.197281	14.286911	42.627968	41.998492	44.998225	-23.127600	-2609.803546	-3177.394188	32.192815	48.599837	1451.828565	24.570542	19.048055	8.690287	5.582595	-45.000000	-37.348859	45.000000	-39.051509	451.325777	-95.573633	137.315344	159.556374	-349.777037	18.142170	6.877633	-19.964489	
8.7000	40.177843	14.854067	15.776829	-155.320562	804.762490	4.125002	14.251878	42.564111	41.922512	44.999193	-23.320099	-2609.850351	-3177.138622	32.271432	48.295344	1451.861745	24.376320	19.085419	8.622755	5.661829	-45.000000	-37.348095	45.000000	-39.107986	451.584639	-95.374380	137.309145	159.487497	-349.737092	17.357877	6.922752	-19.970225	
8.7100	40.207853	14.808814	15.692780	-157.811502	806.302282	4.053230	14.215768	42.491251	41.846360	45.000000	-23.510457	-2609.899189	-3176.890261	32.344722	48.025578	1451.898904	24.159674	19.120105	8.551383	5.751276	-45.000000	-37.355082	45.000000	-39.161344	451.850929	-95.180144	137.304352	159.388808	-349.702484	16.497174	6.985202	-19.969731	
8.7200	40.245758	14.722052	15.569043	-160.310956	807.848997	3.983170	14.151389	42.418977	41.790502	45.000000	-23.621425	-2609.975823	-3176.673755	32.405324	47.812077	1451.933869	23.929396	19.155752	8.491979	5.808105	-45.000000	-37.378398	45.000000	-39.122504	452.115228	-95.023899	137.325152	159.292148	-349.677677	15.595670	7.050095	-19.964914	
8.7300	40.286451	14.610452	15.418300	-162.816343	809.397360	3.915253	14.070457	42.363883	41.743550	45.000000	-23.676977	-2610.069453	-3176.479925	32.453942	47.660563	1451.969005	23.688431	19.191959	8.438461	5.844803	-45.000000	-37.416935	45.000000	-39.029873	452.371837	-94.885367	137.366601	159.177054	-349.657691	14.689213	7.113689	-19.958855	
8.7400	40.325729	14.492902	15.262747	-165.326139	810.942765	3.849153	13.983098	42.318225	41.693492	45.000000	-23.719395	-2610.167268	-3176.294645	32.500194	47.542797	1452.005962	23.432195	19.228036	8.387617	5.873861	-45.000000	-37.457096	45.000000	-38.924685	452.624859	-94.756684	137.419373	159.038557	-349.637475	13.793115	7.172672	-19.953152	
8.7500	40.358756	14.383356	15.119493	-167.837196	812.479967	3.784244	13.900053	42.273608	41.634236	45.000000	-23.781211	-2610.257979	-3176.106728	32.545648	47.435693	1452.046954	23.158485	19.264011	8.337543	5.906516	-45.000000	-37.492303	45.000000	-38.838890	452.878196	-94.627881	137.476496	158.868274	-349.613592	12.917358	7.226974	-19.949328	
8.7600	40.387022	14.272496	14.977760	-170.346109	814.004237	3.719930	13.815732	42.236302	41.568264	45.000000	-23.854370	-2610.341314	-3175.919531	32.591579	47.328591	1452.089844	22.869695	19.300726	8.291465	5.932289	-45.000000	-37.527189	45.000000	-38.753176	453.128080	-94.504082	137.542798	158.675540	-349.589145	12.071673	7.274649	-19.948477	
8.7700	40.409821	14.163444	14.841725	-172.847745	815.510552	3.655926	13.732140	42.193215	41.499591	45.000000	-23.942851	-2610.419645	-3175.734587	32.635014	47.226453	1452.132126	22.569069	19.337524	8.248269	5.958797	-45.000000	-37.560030	45.000000	-38.677850	453.377329	-94.383375	137.611661	158.460463	-349.566050	11.257319	7.314652	-19.949841	
8.7800	40.422692	14.072105	14.734895	-175.337160	816.994805	3.592369	13.660189	42.122240	41.423846	45.000000	-24.086373	-2610.482324	-3175.542419	32.683021	47.106544	1452.169192	22.250397	19.371887	8.204506	6.004229	-45.000000	-37.577982	45.000000	-38.659255	453.633448	-94.257528	137.668837	158.217976	-349.547425	10.453536	7.350836	-19.950524	
8.7900	40.430477	13.986225	14.642255	-177.809274	818.453587	3.529857	13.593336	42.034946	41.345050	45.000000	-24.258418	-2610.536133	-3175.349271	32.732301	46.978680	1452.199784	21.916749	19.404171	8.162371	6.056574	-45.000000	-37.584695	45.000000	-38.675051	453.890143	-94.131406	137.718441	157.963507	-349.534264	9.653360	7.385999	-19.950284	
